# xmcd
#
# Track frame offsets:
#	150
#	14414
#	27304
#	44911
#	64382
#	78909
#	94105
#	108114
#	120089
#	137104
#	155364
#	170212
#	184972
#	200909
#	219014
#	234517
#	251414
#
# Disc length: 3576 seconds
# Revision: 1
# Processed by: cddbd v1.5.2PL0 Copyright (c) Steve Scherf et al.
# Submitted via: dBpowerAMP V12.0
#
DISCID=eb0df611
DTITLE=Luke Bryan - Crash My Party
DYEAR=2013
DGENRE=Country
TTITLE0=That's My Kind Of Night
TTITLE1=Beer In The Headlights
TTITLE2=Crash My Party
TTITLE3=Roller Coaster
TTITLE4=We Run This Town
TTITLE5=Drink A Beer
TTITLE6=I See You
TTITLE7=Goodbye Girl
TTITLE8=Play It Again
TTITLE9=Blood Brothers
TTITLE10=Out Like That
TTITLE11=Shut It Down
TTITLE12=Dirt Road Diary
TTITLE13=What Is It With You  [Bonus Track]
TTITLE14=Sunburnt Lips  [Bonus Track]
TTITLE15=Better Than My Heart  [Bonus Track]
TTITLE16=Your Mama Should've Named You Whiskey  [Bonus Track]
EXTD=
EXTT0=
EXTT1=
EXTT2=
EXTT3=
EXTT4=
EXTT5=
EXTT6=
EXTT7=
EXTT8=
EXTT9=
EXTT10=
EXTT11=
EXTT12=
EXTT13=
EXTT14=
EXTT15=
EXTT16=
PLAYORDER=
